<?xml version="1.0" encoding="utf-8"?>
<!-- Generator: Adobe Illustrator 24.1.3, SVG Export Plug-In . SVG Version: 6.00 Build 0)  -->
<svg version="1.1" id="Layer_1" xmlns="http://www.w3.org/2000/svg" xmlns:xlink="http://www.w3.org/1999/xlink" x="0px" y="0px"
	 viewBox="0 0 32 32" style="enable-background:new 0 0 32 32;" xml:space="preserve">
<style type="text/css">
	.st0{fill:#FFFFFF;}
</style>
<rect width="32" height="32"/>
<g>
	<path class="st0" d="M11.8,25.8V6.2h4c1.5,0,2.7,0.3,3.3,1c0.7,0.7,1,1.7,1.2,3.2c0,0.8,0,1.7,0,2.3c0,0.7,0,1.5,0,2.3
		c0,1.5-0.5,2.5-1.2,3.2c-0.7,0.7-1.8,1-3.3,1h-1.2v7h-2.8V25.8z M14.5,16.5h1.2c0.5,0,1-0.2,1.2-0.3c0.3-0.2,0.3-0.7,0.5-1.2
		c0-0.5,0-1,0-1.7c0-0.5,0-1.2,0-1.7c0-0.5,0-1.2,0-1.7c0-0.5-0.2-0.8-0.5-1.2c-0.3-0.2-0.7-0.3-1.2-0.3h-1.2V16.5z"/>
	<g>
		<path class="st0" d="M30.8,30.8H1.2V1.2h29.6V30.8z M3.7,28.3h24.8V3.7H3.7V28.3z"/>
	</g>
</g>
</svg>
