<?xml version="1.0" encoding="utf-8"?>
<!-- Generator: Adobe Illustrator 24.1.3, SVG Export Plug-In . SVG Version: 6.00 Build 0)  -->
<svg version="1.1" id="Layer_1" xmlns="http://www.w3.org/2000/svg" xmlns:xlink="http://www.w3.org/1999/xlink" x="0px" y="0px"
	 viewBox="0 0 1093.6 500" style="enable-background:new 0 0 1093.6 500;" xml:space="preserve">
<style type="text/css">
	.st0{fill:#FFFFFF;}
</style>
<g>
	<path class="st0" d="M0,494.7V0h99.3c37.9,0,65.3,8,82.2,23.8c16.9,15.9,26.1,42.1,27.5,78.6c0.6,21.8,0.9,41.8,0.9,59.8
		c0,18-0.3,37.1-0.9,57c-1.5,36.3-10.6,62.3-27.5,78.1S137.2,321,99.3,321h-30v173.8H0z M69.3,259.7h30c13.4,0,23.3-3.1,29.7-9.4
		c6.3-6.3,9.9-15.6,10.5-28c0.7-12.8,1.1-26.2,1.3-40.3s0.2-28.3,0-42.5s-0.6-27.8-1.3-40.8c-0.6-12.4-4.1-21.6-10.5-27.8
		c-6.4-6.2-16.3-9.3-29.7-9.3h-30V259.7z"/>
	<path class="st0" d="M324.7,500c-22.9,0-40.8-7-53.8-21s-19.5-37.1-19.5-69.3v-286h69.3v291.6c0,11.6,2.4,20,7.2,25.4
		c4.9,5.4,12.3,8,22.4,8c9.5,0,18.8-2.8,28-8.5c9.2-5.7,15.7-13.4,19.6-23.4V123.7h69.3v371.1H398V458h-10.2
		c-7.8,14.8-16.8,25.6-26.9,32.2C350.8,496.7,338.7,500,324.7,500z"/>
	<path class="st0" d="M526,494.7V0h69.3v494.7H526z"/>
	<path class="st0" d="M741.5,500c-33.6,0-57.6-7.3-72.1-22c-14.4-14.6-22.3-38.8-23.8-72.3c-0.2-7.4-0.2-15.8,0-25.2
		c0.2-9.4,0.4-16.8,0.6-22.1h60.9c-0.2,11.3-0.3,21.6-0.3,30.9c0,9.3,0.1,17.1,0.3,23.5c0.4,12.8,3.4,21.7,9.1,26.9
		c5.7,5.2,14,7.7,25.2,7.7c13.4,0,23-2.6,28.9-7.7c5.9-5.2,8.9-14.1,9.1-26.9c0-5.6,0.1-9.6,0.2-12.2c0.1-2.6,0.2-5.1,0.2-7.6
		c0-2.5,0-6.2,0-11.1c-0.5-10.5-2.2-18.8-5.3-24.9c-3.1-6.1-9.1-10.5-17.9-13.2L719.5,333c-16.5-5.4-30.3-11.8-41.6-19.3
		c-11.2-7.5-19.6-17.3-25.1-29.2c-5.4-12-8.4-27-8.8-45.1c0-4.5,0.1-8.8,0.2-12.8s0.2-8.2,0.2-12.5c0-34.2,7.5-58.7,22.6-73.4
		s41-22.1,77.9-22.1c34.4,0,58.7,7.2,72.7,21.6c14,14.4,21.7,38,23.2,70.8c0.2,7.4,0.3,15.9,0.2,25.5c-0.1,9.6-0.4,17.2-0.8,22.7
		h-63.1c0.2-5.2,0.3-11.3,0.3-18.6c0-7.2,0-14.2,0-21c0-6.8-0.1-12.1-0.3-15.8c-0.4-12.2-2.9-20.7-7.5-25.5
		c-4.6-4.8-12.8-7.3-24.6-7.3c-12.1,0-20.5,2.4-25.2,7.3c-4.7,4.9-7.3,13.4-7.9,25.5c-0.2,5.6-0.4,10-0.5,13.5
		c-0.1,3.4-0.2,8.8-0.2,16.2c0.4,11.3,1.9,20.6,4.6,27.8c2.7,7.2,9.4,12.4,20.1,15.5l33.4,9c24.9,6.4,43.6,16.6,56,30.5
		c12.3,13.9,18.5,34.6,18.5,62c0,4.8-0.1,9.7-0.2,14.8c-0.1,5.2-0.2,9.9-0.2,14.2c-0.2,33-8.1,56.7-23.5,71.1
		C804.6,492.8,778.4,500,741.5,500z"/>
	<path class="st0" d="M992.2,500c-35.9,0-61.9-7.3-77.9-22c-16.1-14.6-25.1-38.8-26.9-72.3c-0.4-11.3-0.7-25.4-0.9-42.2
		s-0.3-34.4-0.3-52.9c0-18.4,0.1-36.2,0.3-53.3c0.2-17.1,0.5-31.7,0.9-43.6c2.1-34.2,11.1-58.6,27.2-73.3
		c16.1-14.6,41.7-21.9,77-21.9c34.4,0,59.4,7.2,75.1,21.6c15.7,14.4,24.3,38,26,70.8c0.2,5.6,0.4,14.2,0.6,26
		c0.2,11.8,0.3,25.1,0.2,40.2c-0.1,15-0.6,29.9-1.4,44.5H955.8c0,14.8,0.2,29.8,0.5,45s0.6,30.5,0.8,46.2
		c0.4,12.8,3.3,21.7,8.8,26.9c5.4,5.2,14.2,7.7,26.4,7.7c11.1,0,19.2-2.6,24.1-7.7c5-5.2,7.8-14.1,8.4-26.9c0.4-6.2,0.6-14,0.5-23.5
		c-0.1-9.5-0.3-19.9-0.5-31.2h67.4c0.6,5.4,1,12.8,1.1,22.2c0.1,9.5-0.1,17.9-0.5,25.4c-1.7,33.6-10.1,57.7-25.4,72.3
		C1052.1,492.7,1027.1,500,992.2,500z M955.8,272.1h69.6c0-9.9,0-19.5,0-28.9c0-9.4-0.1-17.6-0.2-24.6c-0.1-7-0.3-12-0.5-14.8
		c-0.8-11.8-3.7-20.2-8.7-25.2c-4.9-5.1-13.1-7.6-24.4-7.6c-12,0-20.6,2.5-26,7.6c-5.4,5-8.3,13.4-8.7,25.2
		c-0.2,11.8-0.5,23.4-0.7,34.8C956.2,250,956,261.2,955.8,272.1z"/>
</g>
</svg>
